<svg width="414" height="414" viewBox="0 0 414 414" fill="none" xmlns="http://www.w3.org/2000/svg">
<path d="M252.281 316.969C338.025 316.969 407.531 247.462 407.531 161.719C407.531 75.9755 338.025 6.46875 252.281 6.46875C166.538 6.46875 97.0312 75.9755 97.0312 161.719C97.0312 247.462 166.538 316.969 252.281 316.969Z" fill="white" stroke="#372E2C" stroke-width="6.25" stroke-linecap="round" stroke-linejoin="round"/>
<path d="M393.688 273.758C393.903 273.758 394.109 273.673 394.26 273.521C394.412 273.369 394.497 273.164 394.497 272.949C394.497 272.735 394.412 272.529 394.26 272.377C394.109 272.226 393.903 272.141 393.688 272.141C393.474 272.141 393.268 272.226 393.117 272.377C392.965 272.529 392.88 272.735 392.88 272.949C392.88 273.164 392.965 273.369 393.117 273.521C393.268 273.673 393.474 273.758 393.688 273.758Z" stroke="#F8F1E4" stroke-width="6.25" stroke-linecap="round" stroke-linejoin="round"/>
<path d="M271.687 310.5C235.684 310.501 200.8 297.989 173.006 275.105C145.211 252.222 126.233 220.389 119.321 185.056C112.409 149.723 117.992 113.086 135.115 81.4152C152.237 49.7446 179.835 25.0095 213.184 11.4434C192.603 16.7816 173.339 26.2896 156.583 39.3783C139.828 52.4671 125.939 68.8574 115.778 87.5337C105.617 106.21 99.3998 126.774 97.5118 147.952C95.6238 169.129 98.1054 190.469 104.803 210.648C111.5 230.827 122.27 249.416 136.446 265.262C150.622 281.108 167.901 293.874 187.212 302.769C206.524 311.663 227.457 316.497 248.713 316.97C269.969 317.443 291.096 313.546 310.784 305.519C298.015 308.831 284.877 310.507 271.687 310.5Z" fill="#00BBB5" stroke="#00BBB5" stroke-width="6.25" stroke-linecap="round" stroke-linejoin="round"/>
<path d="M252.281 316.969C338.025 316.969 407.531 247.462 407.531 161.719C407.531 75.9755 338.025 6.46875 252.281 6.46875C166.538 6.46875 97.0312 75.9755 97.0312 161.719C97.0312 247.462 166.538 316.969 252.281 316.969Z" stroke="#372E2C" stroke-width="6.25" stroke-linecap="round" stroke-linejoin="round"/>
<path d="M77.6256 32.3438C77.6339 29.4844 78.2779 26.6628 79.5108 24.0829C80.7436 21.503 82.5346 19.2295 84.7541 17.4268C82.4616 16.6251 80.0541 16.2012 77.6256 16.1719C73.7275 16.1679 69.8945 17.1704 66.4975 19.0823C63.1006 20.9942 60.2548 23.7507 58.2357 27.0851C56.2166 30.4194 55.0925 34.2186 54.9724 38.1148C54.8523 42.011 55.7402 45.8722 57.55 49.3246C59.3599 52.777 62.0305 55.7036 65.3032 57.8212C68.5759 59.9387 72.3399 61.1754 76.2308 61.4115C80.1217 61.6477 84.0076 60.8752 87.5124 59.169C91.0172 57.4628 94.0221 54.8806 96.2362 51.6724C91.2386 51.4769 86.5104 49.3558 83.0415 45.753C79.5725 42.1502 77.6318 37.3451 77.6256 32.3438Z" fill="#F1DAB2"/>
<path d="M136.465 401.076C139.038 401.076 141.506 400.054 143.326 398.234C145.146 396.415 146.168 393.946 146.168 391.373C146.168 388.8 145.146 386.332 143.326 384.512C141.506 382.692 139.038 381.67 136.465 381.67C133.891 381.67 131.423 382.692 129.604 384.512C127.784 386.332 126.762 388.8 126.762 391.373C126.762 393.946 127.784 396.415 129.604 398.234C131.423 400.054 133.891 401.076 136.465 401.076Z" fill="#F1DAB2"/>
<path d="M45.2812 381.656C50.4281 381.656 55.3642 379.612 59.0035 375.972C62.6429 372.333 64.6875 367.397 64.6875 362.25C64.6875 357.103 62.6429 352.167 59.0035 348.528C55.3642 344.888 50.4281 342.844 45.2812 342.844C40.1344 342.844 35.1983 344.888 31.559 348.528C27.9196 352.167 25.875 357.103 25.875 362.25C25.875 367.397 27.9196 372.333 31.559 375.972C35.1983 379.612 40.1344 381.656 45.2812 381.656Z" fill="#F1DAB2"/>
<path d="M384.891 32.3438C385.748 32.3438 386.571 32.003 387.178 31.3964C387.784 30.7899 388.125 29.9672 388.125 29.1094C388.125 28.2516 387.784 27.4289 387.178 26.8223C386.571 26.2158 385.748 25.875 384.891 25.875C384.033 25.875 383.21 26.2158 382.604 26.8223C381.997 27.4289 381.656 28.2516 381.656 29.1094C381.656 29.9672 381.997 30.7899 382.604 31.3964C383.21 32.003 384.033 32.3438 384.891 32.3438Z" fill="#F1DAB2"/>
<path d="M32.3438 93.7969C33.2016 93.7969 34.0242 93.4561 34.6308 92.8496C35.2374 92.243 35.5781 91.4203 35.5781 90.5625C35.5781 89.7047 35.2374 88.882 34.6308 88.2754C34.0242 87.6689 33.2016 87.3281 32.3438 87.3281C31.4859 87.3281 30.6633 87.6689 30.0567 88.2754C29.4501 88.882 29.1094 89.7047 29.1094 90.5625C29.1094 91.4203 29.4501 92.243 30.0567 92.8496C30.6633 93.4561 31.4859 93.7969 32.3438 93.7969Z" fill="#F1DAB2"/>
<path d="M155.25 20.2148C155.464 20.2148 155.67 20.1297 155.822 19.978C155.973 19.8264 156.059 19.6207 156.059 19.4062C156.059 19.1918 155.973 18.9861 155.822 18.8345C155.67 18.6828 155.464 18.5977 155.25 18.5977C155.036 18.5977 154.83 18.6828 154.678 18.8345C154.527 18.9861 154.441 19.1918 154.441 19.4062C154.441 19.6207 154.527 19.8264 154.678 19.978C154.83 20.1297 155.036 20.2148 155.25 20.2148Z" fill="#F1DAB2"/>
<path d="M27.4922 295.945C27.9211 295.945 28.3324 295.775 28.6357 295.472C28.939 295.168 29.1094 294.757 29.1094 294.328C29.1094 293.899 28.939 293.488 28.6357 293.185C28.3324 292.881 27.9211 292.711 27.4922 292.711C27.0633 292.711 26.6519 292.881 26.3487 293.185C26.0454 293.488 25.875 293.899 25.875 294.328C25.875 294.757 26.0454 295.168 26.3487 295.472C26.6519 295.775 27.0633 295.945 27.4922 295.945Z" fill="#F1DAB2"/>
<path d="M375.964 323.438C371.759 364.682 329.538 392.278 271.105 377.516" stroke="#372E2C" stroke-width="6.25" stroke-linecap="round" stroke-linejoin="round"/>
<path d="M373.7 297.051C374.302 299.341 374.8 301.611 375.188 303.862" stroke="#372E2C" stroke-width="6.25" stroke-linecap="round" stroke-linejoin="round"/>
<path d="M359.016 384.73C315.888 422.987 233.069 406.058 203.766 385.002" stroke="#372E2C" stroke-width="6.25" stroke-linecap="round" stroke-linejoin="round"/>
<path d="M349.312 335.398C350.736 332.63 351.822 329.699 352.547 326.672" stroke="#372E2C" stroke-width="6.25" stroke-linecap="round" stroke-linejoin="round"/>
<path d="M261.984 339.609C281.391 359.016 322.435 362.056 340.476 346.557" stroke="#372E2C" stroke-width="6.25" stroke-linecap="round" stroke-linejoin="round"/>
<path d="M291.353 102.465C292.952 100.977 294.901 99.9184 297.02 99.3868C299.138 98.8552 301.357 98.8683 303.469 99.4249L315.106 102.491C316.386 102.829 317.738 102.765 318.981 102.31L329.434 98.4869C330.972 97.9235 332.239 96.7976 332.979 95.3367L339.875 81.7523C340.343 80.8316 341.025 80.0364 341.863 79.4331C342.702 78.8299 343.672 78.4362 344.694 78.285L379.703 73.0712C361.284 46.5738 335.063 26.4783 304.688 15.582C274.313 4.68565 241.297 3.53069 210.235 12.2779L184.405 43.7678C182.619 45.9432 181.705 48.7045 181.84 51.5158C181.975 54.3271 183.15 56.9881 185.136 58.9823C186.746 60.5994 188.754 61.7621 190.958 62.3525L199.924 64.7459C201.514 65.1735 202.881 66.1914 203.747 67.5922L207.841 74.1903C208.432 75.1393 208.766 76.2252 208.811 77.342C208.857 78.4588 208.612 79.5683 208.1 80.562L195.053 105.887C193.512 108.88 192.777 112.222 192.92 115.585C193.062 118.948 194.078 122.216 195.868 125.067L202.278 135.288C205.675 140.694 210.951 144.653 217.092 146.401L265.795 160.302C266.706 160.561 267.548 161.017 268.264 161.637C268.979 162.258 269.55 163.028 269.935 163.892L277.562 181.041C277.954 181.925 278.54 182.71 279.276 183.338L289.115 191.721C289.763 192.273 290.296 192.948 290.683 193.707C291.07 194.466 291.303 195.294 291.369 196.143C291.435 196.993 291.333 197.847 291.068 198.656C290.804 199.466 290.381 200.215 289.826 200.861L266.914 227.538C265.758 228.884 264.892 230.453 264.368 232.148C263.844 233.843 263.673 235.627 263.867 237.39L265.064 248.206C265.313 250.456 266.147 252.601 267.484 254.428C268.821 256.254 270.614 257.698 272.684 258.614L278.118 261.014C279.303 261.54 280.303 262.409 280.988 263.509C281.673 264.609 282.012 265.89 281.96 267.185L280.097 314.433C287.581 313.083 294.954 311.18 302.156 308.741L353.518 246.473C353.935 245.966 354.273 245.399 354.52 244.791L372.613 200.092C373.286 198.11 373.522 196.007 373.307 193.926C373.091 191.845 372.429 189.835 371.365 188.034L367.872 182.827C366.49 180.766 364.545 179.146 362.268 178.16C359.992 177.174 357.48 176.863 355.031 177.263L342.948 179.249C341.926 179.411 340.878 179.333 339.888 179.01L306.276 168.026C304.978 167.603 303.848 166.78 303.046 165.675C302.244 164.57 301.813 163.239 301.813 161.874V147.449C301.814 146.305 301.511 145.182 300.936 144.193C300.361 143.205 299.534 142.386 298.54 141.821L293.423 138.923C292.534 138.418 291.538 138.131 290.517 138.086C289.496 138.041 288.479 138.239 287.549 138.664L280.589 141.834C279.398 142.377 278.07 142.546 276.781 142.318C275.492 142.091 274.303 141.478 273.37 140.56L271.863 139.078C270.619 137.853 269.636 136.389 268.973 134.775C268.31 133.16 267.981 131.428 268.005 129.682C268.029 127.937 268.407 126.214 269.114 124.619C269.821 123.023 270.844 121.587 272.121 120.397L291.353 102.465Z" fill="#00BBB5" stroke="#372E2C" stroke-width="6.25" stroke-linecap="round" stroke-linejoin="round"/>
<path d="M303.424 307.195C295.964 308.755 288.398 309.762 280.79 310.21L280.098 314.427L280.259 314.402C283.914 313.735 287.543 312.937 291.14 312.008L291.619 311.879C294.918 311.018 298.171 310.035 301.386 308.968L302.176 308.709L303.424 307.195Z" fill="white" stroke="#372E2C" stroke-width="6.25" stroke-linecap="round" stroke-linejoin="round"/>
<path d="M210.17 12.3557L209.595 13.0608C210.61 12.6145 211.6 12.1164 212.629 11.6895C212.176 11.8124 211.71 11.9029 211.257 12.0258C210.888 12.1293 210.539 12.2587 210.17 12.3622V12.3557Z" fill="white" stroke="#372E2C" stroke-width="6.25" stroke-linecap="round" stroke-linejoin="round"/>
<path d="M246.175 368.357H225.313C221.186 368.359 217.15 367.136 213.718 364.844C210.285 362.551 207.609 359.293 206.029 355.48C204.448 351.667 204.034 347.471 204.839 343.422C205.643 339.374 207.63 335.655 210.548 332.736C213.467 329.816 217.185 327.828 221.233 327.023C225.281 326.217 229.478 326.63 233.291 328.209C237.105 329.788 240.364 332.463 242.657 335.895C244.951 339.327 246.175 343.362 246.175 347.489V368.357Z" fill="#F96339" stroke="#F96339" stroke-width="6.25" stroke-linecap="round" stroke-linejoin="round"/>
<path d="M230.747 352.928H224.278C222.999 352.928 221.748 352.548 220.684 351.838C219.621 351.127 218.792 350.116 218.302 348.934C217.812 347.752 217.684 346.452 217.934 345.197C218.183 343.942 218.8 342.79 219.704 341.885C220.609 340.98 221.762 340.364 223.016 340.115C224.271 339.865 225.572 339.993 226.754 340.483C227.936 340.972 228.946 341.801 229.657 342.865C230.368 343.929 230.747 345.18 230.747 346.459V352.928Z" fill="white" stroke="white" stroke-width="6.25" stroke-linecap="round" stroke-linejoin="round"/>
<path d="M164.817 360.18L233.425 291.566C234.627 292.768 235.58 294.194 236.231 295.764C236.881 297.334 237.216 299.017 237.216 300.716C237.216 302.416 236.881 304.099 236.231 305.669C235.58 307.239 234.627 308.665 233.425 309.866L183.111 360.18C180.685 362.606 177.395 363.968 173.964 363.968C170.534 363.968 167.244 362.606 164.817 360.18Z" fill="white" stroke="#372E2C" stroke-width="6.25" stroke-linecap="round" stroke-linejoin="round"/>
<path d="M176.254 348.744L164.817 360.181C167.244 362.606 170.534 363.969 173.964 363.969C177.395 363.969 180.685 362.606 183.111 360.181L194.548 348.744C192.122 351.17 188.831 352.532 185.401 352.532C181.97 352.532 178.68 351.17 176.254 348.744Z" fill="#00BBB5" stroke="#00BBB5" stroke-width="6.25" stroke-linecap="round" stroke-linejoin="round"/>
<path d="M164.817 360.18L233.425 291.566C234.627 292.768 235.58 294.194 236.231 295.764C236.881 297.334 237.216 299.017 237.216 300.716C237.216 302.416 236.881 304.099 236.231 305.669C235.58 307.239 234.627 308.665 233.425 309.866L183.111 360.18C180.685 362.606 177.395 363.968 173.964 363.968C170.534 363.968 167.244 362.606 164.817 360.18Z" stroke="#372E2C" stroke-width="6.25" stroke-linecap="round" stroke-linejoin="round"/>
<path d="M233.425 291.566L164.818 360.18L160.244 346.459L219.705 286.992L233.425 291.566Z" fill="white" stroke="#372E2C" stroke-width="6.25" stroke-linecap="round" stroke-linejoin="round"/>
<path d="M160.244 346.461L164.818 360.181L178.538 346.461L173.964 332.734L160.244 346.461Z" fill="#00BBB5" stroke="#00BBB5" stroke-width="6.25" stroke-linecap="round" stroke-linejoin="round"/>
<path d="M233.425 291.566L164.818 360.18L160.244 346.459L219.705 286.992L233.425 291.566Z" stroke="#372E2C" stroke-width="6.25" stroke-linecap="round" stroke-linejoin="round"/>
<path d="M186.785 244.926L234.874 233.825C235.998 233.565 237.033 233.009 237.87 232.214C238.706 231.42 239.316 230.416 239.634 229.306C239.952 228.197 239.967 227.023 239.679 225.905C239.39 224.788 238.808 223.768 237.992 222.952L225.223 210.176C221.067 206.021 215.622 203.404 209.782 202.756L136.465 194.605L186.785 244.926Z" fill="#F96339" stroke="#372E2C" stroke-width="6.25" stroke-linecap="round" stroke-linejoin="round"/>
<path d="M9.2963 131.478C-2.7097 170.918 24.9054 238.562 66.1178 279.774L128.218 341.874C130.621 344.278 133.474 346.185 136.614 347.486C139.754 348.787 143.119 349.456 146.518 349.456C149.917 349.456 153.282 348.787 156.422 347.486C159.562 346.185 162.415 344.278 164.818 341.874L169.391 337.307L215.132 291.56L219.705 286.987C222.11 284.585 224.017 281.733 225.319 278.593C226.62 275.454 227.29 272.088 227.29 268.69C227.29 265.291 226.62 261.926 225.319 258.787C224.017 255.647 222.11 252.795 219.705 250.393L157.599 188.293C116.386 147.074 48.7492 119.465 9.2963 131.465V131.478Z" fill="white"/>
<path d="M141.944 328.16L79.8441 266.06C38.6188 224.835 9.28946 177.212 9.28946 131.465C-2.71654 170.924 24.8986 238.555 66.111 279.774L128.211 341.874C130.614 344.278 133.467 346.185 136.607 347.486C139.747 348.787 143.112 349.456 146.511 349.456C149.91 349.456 153.275 348.787 156.415 347.486C159.555 346.185 162.408 344.278 164.811 341.874L169.385 337.307L175.789 330.903C167.198 339.487 152.048 338.258 141.938 328.154L141.944 328.16Z" fill="#00BBB5" stroke="#00BBB5" stroke-width="6.25" stroke-linecap="round" stroke-linejoin="round"/>
<path d="M9.2963 131.478C-2.7097 170.918 24.9054 238.562 66.1178 279.774L128.218 341.874C130.621 344.278 133.474 346.185 136.614 347.486C139.754 348.787 143.119 349.456 146.518 349.456C149.917 349.456 153.282 348.787 156.422 347.486C159.562 346.185 162.415 344.278 164.818 341.874L169.391 337.307L215.132 291.56L219.705 286.987C222.111 284.585 224.019 281.733 225.32 278.594C226.622 275.454 227.292 272.089 227.292 268.69C227.292 265.291 226.622 261.926 225.32 258.786C224.019 255.646 222.111 252.794 219.705 250.393L157.599 188.293C116.386 147.074 48.7492 119.465 9.2963 131.465V131.478Z" stroke="#372E2C" stroke-width="6.25" stroke-linecap="round" stroke-linejoin="round"/>
<path d="M128.225 341.881L219.706 250.406C222.109 252.809 224.015 255.661 225.315 258.801C226.615 261.94 227.285 265.305 227.285 268.703C227.285 272.101 226.615 275.466 225.315 278.605C224.015 281.745 222.109 284.597 219.706 287L164.818 341.887C162.416 344.29 159.563 346.196 156.424 347.497C153.284 348.797 149.92 349.466 146.521 349.466C143.123 349.466 139.759 348.797 136.619 347.497C133.48 346.196 130.627 344.284 128.225 341.881Z" fill="white" stroke="#372E2C" stroke-width="6.25" stroke-linecap="round" stroke-linejoin="round"/>
<path d="M141.945 328.16L128.225 341.88C130.627 344.283 133.48 346.189 136.619 347.49C139.759 348.79 143.123 349.459 146.521 349.459C149.92 349.459 153.284 348.79 156.424 347.49C159.563 346.189 162.416 344.283 164.818 341.88L178.539 328.167C176.135 330.569 173.283 332.475 170.143 333.774C167.003 335.074 163.638 335.743 160.24 335.742C156.842 335.742 153.478 335.072 150.338 333.771C147.199 332.47 144.347 330.563 141.945 328.16Z" fill="#00BBB5" stroke="#00BBB5" stroke-width="6.25" stroke-linecap="round" stroke-linejoin="round"/>
<path d="M128.225 341.881L219.706 250.406C222.109 252.809 224.015 255.661 225.315 258.801C226.615 261.94 227.285 265.305 227.285 268.703C227.285 272.101 226.615 275.466 225.315 278.605C224.015 281.745 222.109 284.597 219.706 287L164.818 341.887C162.416 344.29 159.563 346.196 156.424 347.497C153.284 348.797 149.92 349.466 146.521 349.466C143.123 349.466 139.759 348.797 136.619 347.497C133.48 346.196 130.627 344.284 128.225 341.881Z" stroke="#372E2C" stroke-width="6.25" stroke-linecap="round" stroke-linejoin="round"/>
<path d="M11.0618 184.592L62.4172 133.243C45.1918 127.884 26.8392 127.274 9.29587 131.477C5.09548 149.019 5.70136 167.369 11.0618 184.592Z" fill="white" stroke="#372E2C" stroke-width="6.25" stroke-linecap="round" stroke-linejoin="round"/>
<path d="M11.0615 184.572V184.591L18.3841 177.275C12.5949 162.689 9.51498 147.168 9.29549 131.477C5.21555 149.023 5.8246 167.335 11.0615 184.572Z" fill="#00BBB5" stroke="#00BBB5" stroke-width="6.25" stroke-linecap="round" stroke-linejoin="round"/>
<path d="M11.0618 184.592L62.4172 133.243C45.1918 127.884 26.8392 127.274 9.29587 131.477C5.09548 149.019 5.70136 167.369 11.0618 184.592Z" stroke="#372E2C" stroke-width="6.25" stroke-linecap="round" stroke-linejoin="round"/>
<path d="M128.225 256.641C135.945 256.641 143.349 253.574 148.808 248.115C154.267 242.656 157.334 235.252 157.334 227.531C157.334 219.811 154.267 212.407 148.808 206.948C143.349 201.489 135.945 198.422 128.225 198.422C120.504 198.422 113.1 201.489 107.641 206.948C102.182 212.407 99.1152 219.811 99.1152 227.531C99.1152 235.252 102.182 242.656 107.641 248.115C113.1 253.574 120.504 256.641 128.225 256.641Z" fill="#F96339" stroke="#372E2C" stroke-width="6.25" stroke-linecap="round" stroke-linejoin="round"/>
<path d="M80.1934 192.445C83.6246 192.445 86.9153 191.082 89.3416 188.656C91.7678 186.23 93.1309 182.939 93.1309 179.508C93.1309 176.077 91.7678 172.786 89.3416 170.36C86.9153 167.933 83.6246 166.57 80.1934 166.57C76.7621 166.57 73.4714 167.933 71.0452 170.36C68.6189 172.786 67.2559 176.077 67.2559 179.508C67.2559 182.939 68.6189 186.23 71.0452 188.656C73.4714 191.082 76.7621 192.445 80.1934 192.445Z" fill="#F96339" stroke="#372E2C" stroke-width="6.25" stroke-linecap="round" stroke-linejoin="round"/>
<path d="M116.787 216.096C118.289 214.593 120.072 213.402 122.034 212.589C123.997 211.776 126.1 211.357 128.224 211.357C130.348 211.357 132.451 211.776 134.414 212.589C136.376 213.402 138.159 214.593 139.661 216.096" stroke="white" stroke-width="6.25" stroke-linecap="round" stroke-linejoin="round"/>
<path d="M122.746 308.96L111.652 357.049C111.393 358.175 110.837 359.212 110.043 360.05C109.248 360.889 108.243 361.5 107.132 361.819C106.022 362.138 104.846 362.153 103.727 361.864C102.609 361.575 101.588 360.991 100.771 360.174L87.9955 347.398C83.8407 343.243 81.224 337.797 80.5758 331.957L72.4316 258.646L122.746 308.96Z" fill="#F96339" stroke="#372E2C" stroke-width="6.25" stroke-linecap="round" stroke-linejoin="round"/>
</svg>
