<svg width="180" height="58" viewBox="0 0 180 58" fill="none" xmlns="http://www.w3.org/2000/svg">
<path d="M176.027 41.4043C178.008 39.422 179.109 36.7535 179.135 33.5404C179.164 31.1623 178.459 29.2199 177.416 27.6188L178.124 26.9108C178.106 26.929 178.084 26.9471 178.063 26.9653C179.266 25.7962 179.996 24.1406 180 22.2454C180.018 20.0634 179.229 18.0993 177.714 16.5671C174.831 13.659 170.474 13.3431 168.384 13.3468C168.119 8.87745 164.913 5.78778 160.461 5.78778C159.85 5.78778 159.214 5.84587 158.564 5.95842C156.648 6.29244 154.933 7.17468 153.661 8.45267C153.668 8.44541 153.671 8.43814 153.679 8.43451L150.72 11.3899C150.306 11.8037 149.939 12.2576 149.626 12.7513C149.339 13.2015 149.107 13.6735 148.925 14.16C148.26 14.5158 147.631 14.9733 147.082 15.5179L144.901 17.6963C142.256 14.2 139.199 13.3431 136.844 13.3431C136.179 13.3431 135.535 13.3722 134.91 13.4339L135.492 10.6637C135.724 9.55275 135.445 8.39821 134.729 7.51596C134.013 6.63372 132.937 6.12543 131.806 6.12543H119.267C118.224 6.12543 117.269 6.55384 116.582 7.25819C116.589 7.2473 116.596 7.24003 116.607 7.22914L113.649 10.1845C113.132 10.7 112.765 11.3644 112.616 12.1232L112.108 14.7228C110 15.409 107.975 16.5998 106.111 18.2626C105.725 18.6039 105.351 18.9634 104.991 19.3409C105.093 19.2357 105.191 19.134 105.293 19.0323L104.988 19.3373C102.48 15.6631 98.271 13.3431 93.3136 13.3431C88.3562 13.3431 83.5368 15.2964 80.2658 18.6003C79.9387 18.1791 79.5862 17.7798 79.2118 17.4022C76.6131 14.7881 73.0332 13.3468 69.1334 13.3468C65.8587 13.3468 62.7803 14.1165 60.1089 15.5614C60.1089 14.1346 59.8872 12.9038 59.4475 11.8219C58.6297 9.82505 57.0996 8.30744 55.1442 7.55227C54.1593 7.17105 53.1416 6.975 52.1203 6.975C50.0087 6.975 48.017 7.80641 46.5196 9.32402L45.4874 10.3551C45.0731 9.82505 44.5788 9.36396 44.0009 8.97185C42.2454 7.79189 40.2319 7.65393 38.3202 7.65393H35.3908C34.3368 7.65393 32.9739 8.0061 31.7345 9.28771C31.76 9.25867 31.7854 9.22599 31.8145 9.20058L28.856 12.1559C28.4344 12.5771 28.0273 13.1108 27.6494 13.7752C27.2278 12.8929 26.708 12.0688 26.0793 11.3209C23.7387 8.51076 20.2823 6.96411 16.3352 6.96411C12.6498 6.96411 10.0694 8.14406 7.94318 9.25141C6.60932 9.94486 5.479 10.6347 4.50132 11.3463C4.32323 11.477 4.15968 11.6222 4.01066 11.7783C4.02884 11.7602 4.04337 11.7384 4.06155 11.7202L1.10308 14.6828C-0.107208 15.8918 -0.365256 17.7907 0.547 19.2937L4.11243 25.1608C4.60309 25.9668 5.37723 26.555 6.27858 26.82L4.38865 37.1782C3.62177 41.339 4.14877 44.4468 6.00236 46.6687C7.64878 48.6438 10.1202 49.6458 13.3477 49.6458C17.5491 49.6458 21.9541 47.9104 25.8212 44.8825C26.1847 45.6267 26.6462 46.3383 27.2241 46.9846C28.7797 48.7237 30.884 49.6458 33.3046 49.6458C38.004 49.6458 42.3654 47.6417 46.1016 43.9131L49.0601 40.9577C49.0165 41.0013 48.9729 41.0412 48.9293 41.0848C49.1437 40.8742 49.3581 40.6528 49.5689 40.4313C51.8078 45.1148 56.5217 48.1246 62.3914 48.1246C67.5996 48.1246 72.1573 46.2657 75.3738 43.0526C75.7118 43.4738 76.0752 43.8768 76.4605 44.2507C79.0373 46.7486 82.6282 48.1246 86.5716 48.1246C91.2056 48.1246 95.3526 46.6397 98.4891 44.0184C100.554 46.6651 103.861 48.1246 108.15 48.1246C110.392 48.1246 112.729 47.3985 114.768 46.135C116.109 46.9338 117.617 47.4529 118.977 47.7615C118.806 48.3751 118.715 49.025 118.715 49.7039C118.715 54.765 123.643 57.1213 126.973 57.1213C131.025 57.1213 135.517 55.2515 140.333 51.5665C141.943 50.332 143.549 48.9161 145.043 47.4239L148.002 44.4686C147.984 44.4867 147.962 44.5085 147.94 44.5266C148.834 43.6371 149.688 42.7186 150.48 41.7964C150.84 42.9691 151.48 44.0365 152.385 44.9514C155.42 48.0193 160.334 48.2553 161.766 48.2553C166.687 48.2553 170.579 46.8575 173.072 44.3669L176.031 41.4043H176.027Z" fill="#372E2C"/>
<path d="M35.3943 11.4153C34.1513 11.4153 33.2318 13.4557 32.0433 18.0339C31.9343 18.5132 31.5018 20.412 31.0184 21.8969C29.3429 26.9508 27.1258 34.1249 24.2582 34.1249C22.4701 34.1249 22.7972 32.6944 23.0661 31.2712L24.9342 21.3088C26.0137 15.4852 22.2883 10.7291 16.3387 10.7291C13.4129 10.7291 11.3958 11.7021 9.68395 12.588C8.75352 13.0745 7.88488 13.5791 7.09619 14.1237C6.88539 14.269 6.83088 14.5558 6.96172 14.7736L10.0365 19.8311C10.1746 20.0598 10.4763 20.1324 10.7089 19.9945C11.0142 19.8093 11.2649 19.6568 11.4249 19.5624C11.9264 19.2647 12.3262 19.0832 12.6642 19.0832C12.9186 19.0832 13.1367 19.1848 13.3439 19.4063C13.7836 19.8855 13.6346 20.7605 13.6274 20.8077L11.0578 34.8946C10.1928 39.5926 11.1668 42.9219 16.306 42.9219C21.4451 42.9219 27.1258 39.7124 31.3418 33.8272C30.913 37.6285 31.778 42.9219 36.2666 42.9219C44.913 42.9219 50.75 34.2992 53.8647 25.5965C54.4245 25.8616 55.0241 26.083 55.6529 26.2718C55.1477 27.7386 54.8788 29.3361 54.8788 31.0316C54.8788 37.102 59.0839 41.3971 65.3497 41.3971C72.2516 41.3971 77.5434 37.4433 79.0663 31.3475C79.2116 37.2545 83.3768 41.3971 89.53 41.3971C95.6831 41.3971 100.833 38.0714 102.789 32.9958C102.789 39.117 106.263 41.3971 111.108 41.3971C113.714 41.3971 116.272 39.9811 117.875 38.1985C118.835 40.2062 122.364 41.3971 125.602 41.3971C129.905 41.3971 133.082 39.9412 134.503 36.5756C134.608 36.3214 134.492 36.0273 134.234 35.9257L129.771 34.1648C129.535 34.0704 129.266 34.1794 129.153 34.4081C128.775 35.1633 128.27 35.7805 127.623 35.7805C126.976 35.7805 126.62 35.3666 126.663 34.3645L128.459 25.8761C129.295 24.2677 129.971 23.3129 130.814 23.3129C134.016 23.3129 138.018 35.0943 138.018 39.8431C138.018 42.8566 135.917 44.9115 133.035 44.9115C132.257 44.9115 130.887 43.452 128.968 43.452C126.82 43.452 125.45 44.9115 125.45 46.7414C125.45 49.526 128.655 50.3938 129.935 50.3938C137.018 50.3938 145.814 42.174 149.604 36.8297C153.751 30.9844 155.634 27.1504 156.295 23.9591C157.36 23.6614 158.367 23.2185 159.287 22.6521C158.97 23.4908 158.796 24.4311 158.785 25.4586C158.694 31.6706 166.646 32.7198 166.603 35.7768C166.603 36.7353 166.01 37.2835 165.095 37.2835C164.455 37.2835 164.179 37.1928 163.63 36.9169C163.448 34.8183 161.802 33.6311 159.745 33.6311C158.283 33.6311 156.866 34.9563 156.866 36.463C156.819 40.3442 161.62 41.5278 164.727 41.5278C170.03 41.5278 175.333 39.6108 175.376 33.4932C175.467 27.0561 166.872 24.9539 166.915 22.8082C166.915 21.8497 167.511 21.2107 168.515 21.2107C169.34 21.2107 169.703 21.3923 170.39 21.759C170.623 23.4472 171.626 25.0011 173.501 25.0011C175.148 25.0011 176.245 23.8611 176.241 22.2128C176.289 18.3788 171.898 17.1009 168.744 17.1009C166.846 17.1009 164.971 17.5039 163.368 18.3026C163.852 17.3949 164.226 16.4183 164.458 15.3799C164.593 14.8789 164.647 14.3307 164.637 13.8296C164.6 11.4262 163.248 9.5455 160.464 9.5455C160.075 9.5455 159.657 9.58181 159.21 9.66168C156.375 10.1518 154.714 12.4427 155.314 14.6066C155.834 16.4982 158.516 16.8903 158.516 17.8052C158.516 18.5204 157.48 19.2829 156.412 19.8964C155.907 18.1755 154.322 17.0609 152.188 17.0609C150.426 17.0609 148.754 18.2445 148.754 20.4846C148.754 22.9062 150.08 22.9062 150.08 24.2314C150.08 27.3356 148.758 29.9388 147.34 32.0845C147.017 32.5855 146.239 33.4133 146.199 33.4569C145.741 28.2941 143.393 17.1081 136.851 17.1081C134.521 17.1081 131.977 17.5547 129.836 19.3046L131.69 10.4786C131.752 10.1772 131.523 9.89041 131.214 9.89041H119.674C119.442 9.89041 119.242 10.0538 119.195 10.2825L118.41 14.298C118.351 14.5993 118.58 14.8789 118.889 14.8789H121.146L120.525 18.0194C118.835 17.8814 118.191 17.7907 116.411 17.7907C110.646 17.7907 105.656 23.0079 103.686 28.374C103.701 28.1235 103.704 27.8693 103.704 27.6115C103.704 21.6755 99.4521 17.1081 93.3243 17.1081C86.4842 17.1081 81.0652 21.2398 79.5133 27.3574C79.3934 21.5447 75.1774 17.1081 69.1405 17.1081C64.8154 17.1081 61.0574 18.7601 58.4878 21.5193C57.2448 21.3596 56.3071 20.9929 55.5511 20.5354C56.3253 17.6527 56.6597 14.9479 55.9618 13.2451C55.5402 12.214 54.7697 11.4407 53.7884 11.0595C53.2323 10.8416 52.669 10.7363 52.1238 10.7363C51.0335 10.7363 50.0049 11.1611 49.2017 11.9708C47.5117 13.6808 47.1846 16.854 48.3912 19.8674C48.6711 20.5681 49.0236 21.218 49.4307 21.8279C48.0132 26.192 44.9566 34.1285 42.3761 34.1285C40.4826 34.1285 41.0241 32.64 41.184 31.2748L42.5906 21.4249C42.696 20.5318 43.292 16.6107 43.292 15.6559C43.292 11.8437 41.2385 11.4153 38.3201 11.4153H35.3907H35.3943ZM65.9821 35.7841C64.6555 35.7841 64.4302 34.1866 64.4302 33.0902C64.4302 30.7157 65.6187 22.7247 68.5444 22.7247C69.9146 22.7247 70.0964 24.3222 70.0964 25.4658C70.0964 27.8403 68.9551 35.7841 65.9821 35.7841ZM90.166 35.7841C88.8394 35.7841 88.6104 34.1866 88.6104 33.0902C88.6104 30.7157 89.7989 22.7247 92.7247 22.7247C94.0985 22.7247 94.2802 24.3222 94.2802 25.4658C94.2802 27.8403 93.1354 35.7841 90.166 35.7841ZM118.602 27.6115L117.595 31.4927C117.003 33.8199 115.949 35.7841 114.441 35.7841C113.114 35.7841 112.656 34.0015 112.656 32.8614C112.656 30.0767 114.986 22.7683 117.912 22.7683C120.016 22.7683 118.918 26.3771 118.602 27.6115Z" fill="#F7F0E5"/>
</svg>
