<svg width="142" height="40" viewBox="0 0 142 40" fill="none" xmlns="http://www.w3.org/2000/svg">
<path d="M138.034 27.753C139.578 26.2084 140.436 24.129 140.456 21.6253C140.478 19.7723 139.929 18.2587 139.116 17.0111L139.668 16.4594C139.654 16.4736 139.637 16.4877 139.62 16.5019C140.557 15.5909 141.127 14.3009 141.13 12.8241C141.144 11.1238 140.529 9.59332 139.348 8.39946C137.102 6.13339 133.707 5.88726 132.078 5.89009C131.872 2.40753 129.374 0 125.904 0C125.429 0 124.933 0.0452649 124.426 0.132966C122.934 0.393239 121.597 1.0807 120.606 2.07653C120.611 2.07087 120.614 2.06521 120.62 2.06238L118.314 4.36523C117.992 4.68774 117.706 5.04137 117.462 5.42613C117.238 5.77693 117.057 6.14471 116.915 6.5238C116.397 6.80105 115.907 7.15751 115.48 7.58187L113.78 9.2793C111.719 6.55492 109.337 5.88726 107.502 5.88726C106.983 5.88726 106.482 5.90989 105.995 5.95799L106.448 3.79942C106.629 2.93373 106.411 2.03409 105.853 1.34663C105.296 0.65917 104.457 0.263102 103.576 0.263102H93.8059C92.9931 0.263102 92.2483 0.596931 91.713 1.14577C91.7187 1.13728 91.7243 1.13162 91.7328 1.12313L89.4275 3.42598C89.0254 3.82771 88.7394 4.34543 88.6232 4.9367L88.2268 6.9623C86.5842 7.49699 85.0067 8.42492 83.5539 9.72063C83.2537 9.98656 82.962 10.2666 82.6816 10.5609C82.7609 10.4788 82.8374 10.3996 82.9167 10.3204L82.6788 10.558C80.7246 7.69503 77.4451 5.88726 73.5822 5.88726C69.7193 5.88726 65.964 7.40929 63.4151 9.98373C63.1602 9.65556 62.8855 9.34437 62.5938 9.05014C60.5689 7.01323 57.7793 5.89009 54.7405 5.89009C52.1889 5.89009 49.7901 6.48985 47.7085 7.61581C47.7085 6.504 47.5358 5.54495 47.1931 4.70189C46.5559 3.14591 45.3636 1.96336 43.84 1.37492C43.0725 1.07787 42.2795 0.925101 41.4837 0.925101C39.8383 0.925101 38.2863 1.57295 37.1195 2.7555L36.3152 3.55895C35.9923 3.14591 35.6072 2.78662 35.1569 2.48108C33.789 1.56164 32.22 1.45413 30.7304 1.45413H28.4477C27.6264 1.45413 26.5644 1.72855 25.5987 2.72721C25.6185 2.70458 25.6383 2.67911 25.661 2.65931L23.3557 4.96216C23.0272 5.29033 22.71 5.7062 22.4155 6.22392C22.087 5.53646 21.682 4.89426 21.192 4.31148C19.3682 2.12179 16.6749 0.916614 13.5993 0.916614C10.7276 0.916614 8.71682 1.83606 7.06007 2.69892C6.0207 3.23927 5.13994 3.77679 4.37811 4.33128C4.23934 4.43313 4.1119 4.54629 3.99579 4.66794C4.00995 4.65379 4.02127 4.63682 4.03543 4.62267L1.73014 6.93118C0.787067 7.87326 0.585992 9.35285 1.29684 10.5241L4.07508 15.0958C4.45741 15.7239 5.06064 16.1822 5.76299 16.3887L4.29032 24.46C3.69276 27.7021 4.1034 30.1238 5.54775 31.8552C6.83067 33.3942 8.75647 34.175 11.2713 34.175C14.5452 34.175 17.9776 32.8227 20.9909 30.4633C21.2742 31.0432 21.6338 31.5977 22.0841 32.1013C23.2962 33.4564 24.936 34.175 26.8221 34.175C30.484 34.175 33.8825 32.6133 36.7938 29.7079L39.0991 27.4051C39.0651 27.439 39.0311 27.4701 38.9971 27.5041C39.1642 27.34 39.3313 27.1674 39.4956 26.9948C41.2401 30.6443 44.9133 32.9896 49.4871 32.9896C53.5454 32.9896 57.0968 31.5411 59.6032 29.0374C59.8666 29.3656 60.1498 29.6796 60.45 29.971C62.4579 31.9174 65.256 32.9896 68.3287 32.9896C71.9396 32.9896 75.171 31.8325 77.615 29.7899C79.2237 31.8523 81.8008 32.9896 85.1426 32.9896C86.89 32.9896 88.711 32.4238 90.2998 31.4393C91.3448 32.0617 92.5201 32.4662 93.5793 32.7067C93.4462 33.1848 93.3754 33.6912 93.3754 34.2202C93.3754 38.1639 97.2157 40 99.8099 40C102.968 40 106.468 38.543 110.22 35.6715C111.475 34.7097 112.727 33.6063 113.891 32.4436L116.196 30.1407C116.182 30.1549 116.165 30.1719 116.148 30.186C116.845 29.4929 117.51 28.7771 118.128 28.0586C118.408 28.9723 118.906 29.8041 119.612 30.517C121.976 32.9076 125.805 33.0914 126.921 33.0914C130.756 33.0914 133.789 32.0023 135.732 30.0615L138.037 27.753H138.034Z" fill="#F96339"/>
<path d="M28.4504 4.38506C27.4818 4.38506 26.7653 5.97499 25.8393 9.54243C25.7543 9.91586 25.4173 11.3955 25.0406 12.5525C23.735 16.4906 22.0075 22.0808 19.773 22.0808C18.3796 22.0808 18.6345 20.9662 18.8441 19.8572L20.2998 12.0942C21.1409 7.55643 18.238 3.85037 13.6019 3.85037C11.3221 3.85037 9.75036 4.60856 8.41646 5.29885C7.69145 5.67794 7.01459 6.07118 6.40004 6.49554C6.23578 6.6087 6.1933 6.8322 6.29525 7.00194L8.69117 10.9428C8.79879 11.121 9.03385 11.1776 9.2151 11.0701C9.45299 10.9258 9.6484 10.807 9.77301 10.7335C10.1638 10.5015 10.4754 10.36 10.7387 10.36C10.937 10.36 11.1069 10.4392 11.2683 10.6118C11.611 10.9852 11.4949 11.667 11.4892 11.7038L9.48697 22.6806C8.81295 26.3414 9.57194 28.9356 13.5765 28.9356C17.581 28.9356 22.0075 26.4347 25.2927 21.8488C24.9585 24.8108 25.6325 28.9356 29.1301 28.9356C35.8676 28.9356 40.4158 22.2166 42.8429 15.4353C43.279 15.6419 43.7463 15.8144 44.2363 15.9616C43.8426 17.1045 43.6331 18.3493 43.6331 19.6704C43.6331 24.4006 46.9097 27.7474 51.7922 27.7474C57.1703 27.7474 61.2937 24.6666 62.4804 19.9166C62.5937 24.5194 65.8392 27.7474 70.6339 27.7474C75.4285 27.7474 79.4415 25.156 80.9652 21.201C80.9652 25.9707 83.6726 27.7474 87.4478 27.7474C89.4783 27.7474 91.4721 26.6441 92.721 25.255C93.4687 26.8195 96.2186 27.7474 98.742 27.7474C102.095 27.7474 104.57 26.6129 105.678 23.9904C105.76 23.7924 105.669 23.5632 105.468 23.484L101.99 22.1119C101.806 22.0384 101.597 22.1232 101.509 22.3015C101.214 22.8899 100.821 23.3708 100.317 23.3708C99.8125 23.3708 99.535 23.0483 99.569 22.2675L100.968 15.6532C101.619 14.3999 102.146 13.6559 102.803 13.6559C105.298 13.6559 108.416 22.8362 108.416 26.5366C108.416 28.8847 106.779 30.4859 104.534 30.4859C103.927 30.4859 102.86 29.3486 101.364 29.3486C99.6907 29.3486 98.623 30.4859 98.623 31.9118C98.623 34.0816 101.121 34.7578 102.118 34.7578C107.637 34.7578 114.491 28.3528 117.445 24.1884C120.676 19.6337 122.143 16.6462 122.659 14.1594C123.488 13.9275 124.273 13.5823 124.989 13.141C124.743 13.7945 124.607 14.5272 124.599 15.3278C124.528 20.1684 130.724 20.986 130.69 23.368C130.69 24.1149 130.229 24.5421 129.515 24.5421C129.017 24.5421 128.801 24.4713 128.374 24.2563C128.232 22.6211 126.949 21.696 125.346 21.696C124.208 21.696 123.103 22.7287 123.103 23.9027C123.067 26.927 126.808 27.8492 129.229 27.8492C133.361 27.8492 137.493 26.3555 137.527 21.5885C137.598 16.5726 130.9 14.9346 130.934 13.2626C130.934 12.5158 131.398 12.0179 132.18 12.0179C132.823 12.0179 133.106 12.1593 133.641 12.445C133.823 13.7605 134.604 14.9714 136.066 14.9714C137.349 14.9714 138.204 14.0831 138.201 12.7987C138.238 9.81119 134.817 8.81536 132.358 8.81536C130.88 8.81536 129.419 9.12939 128.17 9.75178C128.547 9.04452 128.838 8.2835 129.019 7.47439C129.124 7.08398 129.167 6.65679 129.158 6.26638C129.13 4.39355 128.076 2.9281 125.907 2.9281C125.604 2.9281 125.278 2.95639 124.93 3.01863C122.721 3.40055 121.427 5.18569 121.894 6.8718C122.299 8.34574 124.389 8.65128 124.389 9.3642C124.389 9.92152 123.582 10.5156 122.749 10.9937C122.356 9.65276 121.121 8.78424 119.458 8.78424C118.085 8.78424 116.782 9.70651 116.782 11.452C116.782 13.339 117.816 13.339 117.816 14.3716C117.816 16.7905 116.785 18.8189 115.681 20.4909C115.428 20.8813 114.822 21.5263 114.791 21.5603C114.434 17.5373 112.605 8.82102 107.507 8.82102C105.692 8.82102 103.709 9.16899 102.041 10.5326L103.486 3.65517C103.534 3.42036 103.355 3.19686 103.115 3.19686H94.1229C93.9417 3.19686 93.7859 3.32417 93.7491 3.5024L93.1374 6.63133C93.092 6.86614 93.2705 7.08398 93.5112 7.08398H95.2699L94.7856 9.53111C93.4687 9.42361 92.9674 9.35288 91.5797 9.35288C87.0881 9.35288 83.1997 13.4182 81.6647 17.5996C81.676 17.4044 81.6789 17.2063 81.6789 17.0055C81.6789 12.38 78.3654 8.82102 73.5905 8.82102C68.2606 8.82102 64.038 12.0405 62.8287 16.8074C62.7353 12.2781 59.4501 8.82102 54.746 8.82102C51.3759 8.82102 48.4475 10.1082 46.4453 12.2583C45.4767 12.1338 44.7461 11.8481 44.157 11.4916C44.7602 9.24538 45.0208 7.13773 44.477 5.81091C44.1485 5.00746 43.5481 4.40487 42.7834 4.10782C42.3501 3.93807 41.9112 3.85603 41.4864 3.85603C40.6367 3.85603 39.8353 4.18703 39.2094 4.81791C37.8925 6.15039 37.6376 8.62299 38.5778 10.9711C38.7959 11.5171 39.0706 12.0235 39.3878 12.4988C38.2833 15.8993 35.9015 22.0836 33.8908 22.0836C32.4153 22.0836 32.8373 20.9237 32.9619 19.86L34.0579 12.1848C34.14 11.4888 34.6045 8.43344 34.6045 7.6894C34.6045 4.71889 33.0044 4.38506 30.7302 4.38506H28.4476H28.4504ZM52.285 23.3737C51.2513 23.3737 51.0757 22.1289 51.0757 21.2745C51.0757 19.4243 52.0018 13.1976 54.2816 13.1976C55.3493 13.1976 55.4909 14.4424 55.4909 15.3335C55.4909 17.1837 54.6016 23.3737 52.285 23.3737ZM71.1295 23.3737C70.0958 23.3737 69.9174 22.1289 69.9174 21.2745C69.9174 19.4243 70.8434 13.1976 73.1232 13.1976C74.1937 13.1976 74.3354 14.4424 74.3354 15.3335C74.3354 17.1837 73.4433 23.3737 71.1295 23.3737ZM93.2875 17.0055L92.503 20.0297C92.0414 21.8432 91.2201 23.3737 90.0448 23.3737C89.0111 23.3737 88.6542 21.9846 88.6542 21.0963C88.6542 18.9264 90.4696 13.2315 92.7494 13.2315C94.3891 13.2315 93.5338 16.0436 93.2875 17.0055Z" fill="#372E2C"/>
</svg>
