<svg
    xmlns="http://www.w3.org/2000/svg"
    width="148"
    height="166"
    viewBox="0 0 148 166"
    fill="none"
        >
          <path
            d="M70.7842 100.5C70.3864 100.5 70.0048 100.342 69.7235 100.061C69.4422 99.7794 69.2842 99.3978 69.2842 99C69.2842 98.6022 69.4422 98.2206 69.7235 97.9393C70.0048 97.658 70.3864 97.5 70.7842 97.5"
            stroke="#F97854"
            stroke-width="8"
            stroke-linecap="round"
            stroke-linejoin="round"
          />
          <path
            d="M70.7852 100.5C71.183 100.5 71.5645 100.342 71.8458 100.061C72.1271 99.7794 72.2852 99.3978 72.2852 99C72.2852 98.6022 72.1271 98.2206 71.8458 97.9393C71.5645 97.658 71.183 97.5 70.7852 97.5"
            stroke="#F97854"
            stroke-width="8"
            stroke-linecap="round"
            stroke-linejoin="round"
          />
          <path
            d="M97.7852 100.5C97.3873 100.5 97.0058 100.342 96.7245 100.061C96.4432 99.7794 96.2852 99.3978 96.2852 99C96.2852 98.6022 96.4432 98.2206 96.7245 97.9393C97.0058 97.658 97.3873 97.5 97.7852 97.5"
            stroke="#F97854"
            stroke-width="8"
            stroke-linecap="round"
            stroke-linejoin="round"
          />
          <path
            d="M97.7861 100.5C98.184 100.5 98.5655 100.342 98.8468 100.061C99.1281 99.7794 99.2861 99.3978 99.2861 99C99.2861 98.6022 99.1281 98.2206 98.8468 97.9393C98.5655 97.658 98.184 97.5 97.7861 97.5"
            stroke="#F97854"
            stroke-width="8"
            stroke-linecap="round"
            stroke-linejoin="round"
          />
          <path
            d="M66.2861 127.5C68.9741 118.932 79.1861 113.7 89.3861 116.076C92.3048 116.784 95.0059 118.195 97.2543 120.186C99.5028 122.178 101.23 124.688 102.286 127.5"
            stroke="#F97854"
            stroke-width="8"
            stroke-linecap="round"
            stroke-linejoin="round"
          />
          <path
            d="M109 74V39C109 29.7174 105.313 20.815 98.7487 14.2513C92.185 7.68749 83.2826 4 74 4C64.7174 4 55.815 7.68749 49.2513 14.2513C42.6875 20.815 39 29.7174 39 39V74M12.75 56.5H135.25L144 161.5H4L12.75 56.5Z"
            stroke="#F97854"
            stroke-width="8"
            stroke-linecap="round"
            stroke-linejoin="round"
          />
</svg>