<svg width="70" height="70" viewBox="0 0 70 70" fill="none" xmlns="http://www.w3.org/2000/svg">
<path d="M9.44301 38.5041C14.06 63.9818 45.9589 84.4475 63.5873 53.1225C81.2157 21.7974 -3.98812 -15.7927 9.44301 38.5041Z" fill="#F8F1E4"/>
<path d="M42.5 11.5C45.918 11.5 48.75 14.332 48.75 17.75V49C48.75 52.5156 45.918 55.25 42.5 55.25H17.5C13.9844 55.25 11.25 52.5156 11.25 49V17.75C11.25 14.332 13.9844 11.5 17.5 11.5H21.4062H22.2852C23.0664 7.98438 26.1914 5.25 30 5.25C33.7109 5.25 36.9336 7.98438 37.6172 11.5H38.5938H42.5ZM19.0625 16.1875H17.5C16.6211 16.1875 15.9375 16.9688 15.9375 17.75V49C15.9375 49.8789 16.6211 50.5625 17.5 50.5625H42.5C43.2812 50.5625 44.0625 49.8789 44.0625 49V17.75C44.0625 16.9688 43.2812 16.1875 42.5 16.1875H40.9375V18.5312C40.9375 19.8984 39.8633 20.875 38.5938 20.875H30H21.4062C20.0391 20.875 19.0625 19.8984 19.0625 18.5312V16.1875ZM27.6562 13.0625C27.6562 14.4297 28.6328 15.4062 30 15.4062C31.2695 15.4062 32.3438 14.4297 32.3438 13.0625C32.3438 11.793 31.2695 10.7188 30 10.7188C28.6328 10.7188 27.6562 11.793 27.6562 13.0625ZM39.4727 31.4219L29.0234 41.8711C28.5352 42.2617 27.9492 42.5547 27.3633 42.5547C26.7773 42.5547 26.0938 42.2617 25.7031 41.8711L20.5273 36.5977C19.5508 35.7188 19.5508 34.2539 20.5273 33.2773C21.4062 32.3984 22.8711 32.3984 23.8477 33.2773L27.3633 36.8906L36.1523 28.1016C37.0312 27.2227 38.4961 27.2227 39.4727 28.1016C40.3516 28.9805 40.3516 30.543 39.4727 31.4219Z" fill="#111928"/>
</svg>
