<svg width="72" height="70" viewBox="0 0 72 70" fill="none" xmlns="http://www.w3.org/2000/svg">
<path d="M1.34315 28.9589C-4.81521 61.166 15.6372 78.1089 40.8865 52.7148C66.1358 27.3206 -10.9738 -30.5006 1.34315 28.9589Z" fill="#DDF3F3"/>
<path d="M36.2604 13.4948H11.4167C10.6403 13.4948 10.0365 14.1849 10.0365 14.875V39.7188C10.0365 40.4951 10.6403 41.099 11.4167 41.099H12.4518C13.9183 38.6836 16.5924 36.9583 19.6979 36.9583C22.7171 36.9583 25.3913 38.6836 26.8577 41.099H33.5H36.2604C36.9505 41.099 37.6406 40.4951 37.6406 39.7188V14.875C37.6406 14.1849 36.9505 13.4948 36.2604 13.4948ZM39.0208 45.2396H38.3307H36.2604H33.5H27.9792C27.9792 49.8115 24.2699 53.5208 19.6979 53.5208C15.126 53.5208 11.4167 49.8115 11.4167 45.2396C8.3112 45.2396 5.89584 42.8242 5.89584 39.7188V14.875C5.89584 11.8558 8.3112 9.35417 11.4167 9.35417H36.2604C39.2796 9.35417 41.7813 11.8558 41.7813 14.875V17.6354H45.4043C46.6982 17.6354 47.9059 18.153 48.8548 19.1019L56.8773 27.1244C57.8262 28.0732 58.3437 29.2809 58.3437 30.5749V41.099H59.0339C60.1553 41.099 61.1042 42.0479 61.1042 43.1693C61.1042 44.377 60.1553 45.2396 59.0339 45.2396H55.5833C55.5833 49.8115 51.874 53.5208 47.3021 53.5208C42.7301 53.5208 39.0208 49.8115 39.0208 45.2396ZM53.9443 30.0573L45.9219 22.0348C45.7493 21.8623 45.5768 21.776 45.4043 21.776H41.7813V30.0573H54.0306H53.9443ZM15.5573 45.2396C15.5573 46.7923 16.3337 48.0863 17.6276 48.8626C18.8353 49.639 20.4743 49.639 21.7682 48.8626C22.9759 48.0863 23.8385 46.7923 23.8385 45.2396C23.8385 43.7731 22.9759 42.4792 21.7682 41.7028C20.4743 40.9264 18.8353 40.9264 17.6276 41.7028C16.3337 42.4792 15.5573 43.7731 15.5573 45.2396ZM47.3021 41.099C45.7493 41.099 44.4554 41.9616 43.679 43.1693C42.9027 44.4632 42.9027 46.1022 43.679 47.3099C44.4554 48.6038 45.7493 49.3802 47.3021 49.3802C48.7686 49.3802 50.0625 48.6038 50.8389 47.3099C51.6152 46.1022 51.6152 44.4632 50.8389 43.1693C50.0625 41.9616 48.7686 41.099 47.3021 41.099Z" fill="#111928"/>
</svg>
