<svg width="70" height="70" viewBox="0 0 70 70" fill="none" xmlns="http://www.w3.org/2000/svg">
<path d="M29.1958 68.9365C5.69578 68.9365 -9.80422 58.4366 10.1958 25.4366C23.1958 7.93664 52.6958 25.4366 55.1958 35.9365C57.6958 46.4364 52.6958 68.9365 29.1958 68.9365Z" fill="#F8F7F4"/>
<path d="M52.5 12.5C55.918 12.5 58.75 15.332 58.75 18.75V50C58.75 53.5156 55.918 56.25 52.5 56.25H27.5C23.9844 56.25 21.25 53.5156 21.25 50V18.75C21.25 15.332 23.9844 12.5 27.5 12.5H31.4062H32.2852C33.0664 8.98438 36.1914 6.25 40 6.25C43.7109 6.25 46.9336 8.98438 47.6172 12.5H48.5938H52.5ZM29.0625 17.1875H27.5C26.6211 17.1875 25.9375 17.9688 25.9375 18.75V50C25.9375 50.8789 26.6211 51.5625 27.5 51.5625H52.5C53.2812 51.5625 54.0625 50.8789 54.0625 50V18.75C54.0625 17.9688 53.2812 17.1875 52.5 17.1875H50.9375V19.5312C50.9375 20.8984 49.8633 21.875 48.5938 21.875H40H31.4062C30.0391 21.875 29.0625 20.8984 29.0625 19.5312V17.1875ZM37.6562 14.0625C37.6562 15.4297 38.6328 16.4062 40 16.4062C41.2695 16.4062 42.3438 15.4297 42.3438 14.0625C42.3438 12.793 41.2695 11.7188 40 11.7188C38.6328 11.7188 37.6562 12.793 37.6562 14.0625ZM34.5312 32.8125C34.5312 34.1797 33.457 35.1562 32.1875 35.1562C30.8203 35.1562 29.8438 34.1797 29.8438 32.8125C29.8438 31.543 30.8203 30.4688 32.1875 30.4688C33.457 30.4688 34.5312 31.543 34.5312 32.8125ZM38.4375 31.25H47.8125C48.5938 31.25 49.375 32.0312 49.375 32.8125C49.375 33.6914 48.5938 34.375 47.8125 34.375H38.4375C37.5586 34.375 36.875 33.6914 36.875 32.8125C36.875 32.0312 37.5586 31.25 38.4375 31.25ZM38.4375 40.625H47.8125C48.5938 40.625 49.375 41.4062 49.375 42.1875C49.375 43.0664 48.5938 43.75 47.8125 43.75H38.4375C37.5586 43.75 36.875 43.0664 36.875 42.1875C36.875 41.4062 37.5586 40.625 38.4375 40.625ZM32.1875 44.5312C30.8203 44.5312 29.8438 43.5547 29.8438 42.1875C29.8438 40.918 30.8203 39.8438 32.1875 39.8438C33.457 39.8438 34.5312 40.918 34.5312 42.1875C34.5312 43.5547 33.457 44.5312 32.1875 44.5312Z" fill="#111928"/>
</svg>
