<svg width="73" height="70" viewBox="0 0 73 70" fill="none" xmlns="http://www.w3.org/2000/svg">
<path d="M35.5232 20.2275C60.0232 13.2275 61.5233 37.7275 48.5233 54.2275C37.993 67.5928 27.271 71 12.271 57C8.77099 53.5 6.271 46.5 6.271 46.5C1.27108 27.9999 11.0232 27.2275 35.5232 20.2275Z" fill="#F9EAE9"/>
<path d="M54.0352 13.1602L38.4102 28.7852C37.4336 29.7617 35.9688 29.7617 35.0898 28.7852L27.2773 20.9727C26.3008 20.0938 26.3008 18.6289 27.2773 17.6523C28.1562 16.7734 29.6211 16.7734 30.5977 17.6523L36.75 23.9023L50.7148 9.9375C51.5938 8.96094 53.0586 8.96094 54.0352 9.9375C54.9141 10.8164 54.9141 12.2812 54.0352 13.1602ZM64.1914 24.8789L38.3125 50.6602C37.4336 51.6367 35.9688 51.6367 35.0898 50.6602L21.8086 37.3789C20.832 36.5 20.832 35.0352 21.8086 34.0586C22.6875 33.1797 24.1523 33.1797 25.1289 34.0586L36.75 45.7773L60.8711 21.6562C61.75 20.6797 63.2148 20.6797 64.1914 21.6562C65.0703 22.5352 65.0703 24 64.1914 24.8789Z" fill="#111928"/>
</svg>
