<svg
    xmlns="http://www.w3.org/2000/svg"
    width="18"
    height="19"
    viewBox="0 0 18 19"
    fill="none"
>
    <path
    fill-rule="evenodd"
    clip-rule="evenodd"
    d="M16.2008 9.4998C16.2008 11.4094 15.4422 13.2407 14.092 14.591C12.7417 15.9412 10.9103 16.6998 9.00078 16.6998C7.09122 16.6998 5.25987 15.9412 3.90961 14.591C2.55935 13.2407 1.80078 11.4094 1.80078 9.4998C1.80078 7.59025 2.55935 5.7589 3.90961 4.40864C5.25987 3.05837 7.09122 2.2998 9.00078 2.2998C10.9103 2.2998 12.7417 3.05837 14.092 4.40864C15.4422 5.7589 16.2008 7.59025 16.2008 9.4998ZM9.90078 13.0998C9.90078 13.3385 9.80596 13.5674 9.63718 13.7362C9.46839 13.905 9.23948 13.9998 9.00078 13.9998C8.76209 13.9998 8.53317 13.905 8.36439 13.7362C8.1956 13.5674 8.10078 13.3385 8.10078 13.0998C8.10078 12.8611 8.1956 12.6322 8.36439 12.4634C8.53317 12.2946 8.76209 12.1998 9.00078 12.1998C9.23948 12.1998 9.46839 12.2946 9.63718 12.4634C9.80596 12.6322 9.90078 12.8611 9.90078 13.0998ZM9.00078 4.9998C8.76209 4.9998 8.53317 5.09463 8.36439 5.26341C8.1956 5.43219 8.10078 5.66111 8.10078 5.8998V9.4998C8.10078 9.7385 8.1956 9.96742 8.36439 10.1362C8.53317 10.305 8.76209 10.3998 9.00078 10.3998C9.23948 10.3998 9.46839 10.305 9.63718 10.1362C9.80596 9.96742 9.90078 9.7385 9.90078 9.4998V5.8998C9.90078 5.66111 9.80596 5.43219 9.63718 5.26341C9.46839 5.09463 9.23948 4.9998 9.00078 4.9998Z"
    fill="#C81E1E"
    />
</svg>